<mxfile host="65bd71144e">
    <diagram id="VsJHAJGAxIfV6EA7pkcf" name="Page-1">
        <mxGraphModel dx="2356" dy="549" grid="1" gridSize="10" guides="1" tooltips="1" connect="1" arrows="1" fold="1" page="1" pageScale="1" pageWidth="850" pageHeight="1100" math="0" shadow="0">
            <root>
                <mxCell id="0"/>
                <mxCell id="1" parent="0"/>
                <mxCell id="3" value="&lt;b&gt;&lt;font style=&quot;font-size: 24px;&quot;&gt;Moteur d&#39;inférence&lt;/font&gt;&lt;/b&gt;" style="rounded=1;whiteSpace=wrap;html=1;fillColor=#FFFFCC;" vertex="1" parent="1">
                    <mxGeometry x="-510" y="750" width="130" height="90" as="geometry"/>
                </mxCell>
                <mxCell id="4" value="&lt;b&gt;Temp huile freinage&lt;/b&gt;&lt;div&gt;&lt;b&gt;Min : 55&lt;/b&gt;&lt;/div&gt;&lt;div&gt;&lt;b&gt;Max : 111&lt;/b&gt;&lt;/div&gt;" style="rounded=1;whiteSpace=wrap;html=1;fillColor=#FFFFCC;" vertex="1" parent="1">
                    <mxGeometry x="-770" y="870.0000000000002" width="120" height="60" as="geometry"/>
                </mxCell>
                <mxCell id="5" value="&lt;b&gt;Temp huile Direction&lt;/b&gt;&lt;div&gt;&lt;b&gt;Min : 35.5&lt;/b&gt;&lt;/div&gt;&lt;div&gt;&lt;b&gt;Max : 79.5&lt;/b&gt;&lt;/div&gt;" style="rounded=1;whiteSpace=wrap;html=1;fillColor=#FFFFCC;" vertex="1" parent="1">
                    <mxGeometry x="-670" y="960" width="120" height="60" as="geometry"/>
                </mxCell>
                <mxCell id="6" value="&lt;b&gt;Régime moteur&lt;/b&gt;&lt;div&gt;&lt;b&gt;Min : 1159&lt;/b&gt;&lt;/div&gt;&lt;div&gt;&lt;b&gt;Max : 1951&lt;/b&gt;&lt;/div&gt;" style="rounded=1;whiteSpace=wrap;html=1;fillColor=#FFFFCC;" vertex="1" parent="1">
                    <mxGeometry x="-510" y="1010" width="120" height="60" as="geometry"/>
                </mxCell>
                <mxCell id="7" value="&lt;b&gt;Temp Essieux Avant&lt;/b&gt;&lt;div&gt;&lt;b&gt;Min : 29&lt;/b&gt;&lt;/div&gt;&lt;div&gt;&lt;b&gt;Max : 69&lt;/b&gt;&lt;/div&gt;" style="rounded=1;whiteSpace=wrap;html=1;fillColor=#FFFFCC;" vertex="1" parent="1">
                    <mxGeometry x="-360" y="970" width="120" height="60" as="geometry"/>
                </mxCell>
                <mxCell id="8" value="&lt;b&gt;Pression Embrayage&amp;nbsp;&lt;/b&gt;&lt;div&gt;&lt;b&gt;Min : 0&lt;/b&gt;&lt;/div&gt;&lt;div&gt;&lt;b&gt;Max : 3967.5&lt;/b&gt;&lt;/div&gt;" style="rounded=1;whiteSpace=wrap;html=1;fillColor=#FFFFCC;" vertex="1" parent="1">
                    <mxGeometry x="-230" y="880" width="120" height="60" as="geometry"/>
                </mxCell>
                <mxCell id="9" value="&lt;b&gt;Temp PTO avant&lt;/b&gt;&lt;div&gt;&lt;b&gt;Min : 44.5&lt;/b&gt;&lt;/div&gt;&lt;div&gt;&lt;b&gt;Max : 88.5&lt;/b&gt;&lt;/div&gt;" style="rounded=1;whiteSpace=wrap;html=1;fillColor=#FFFFCC;" vertex="1" parent="1">
                    <mxGeometry x="-810" y="750.0000000000002" width="120" height="60" as="geometry"/>
                </mxCell>
                <mxCell id="10" value="&lt;b&gt;Pression huile moteur&lt;/b&gt;&lt;div&gt;&lt;b&gt;Min : 378.5&lt;/b&gt;&lt;/div&gt;&lt;div&gt;&lt;b&gt;Max : 518.5&lt;/b&gt;&lt;/div&gt;" style="rounded=1;whiteSpace=wrap;html=1;fillColor=#FFFFCC;" vertex="1" parent="1">
                    <mxGeometry x="-710" y="620.0000000000002" width="120" height="60" as="geometry"/>
                </mxCell>
                <mxCell id="11" value="&lt;b&gt;Temp écha Droit&amp;nbsp;&lt;/b&gt;&lt;div&gt;&lt;b&gt;Min : 250&amp;nbsp;&lt;/b&gt;&lt;/div&gt;&lt;div&gt;&lt;b&gt;Max : 618&lt;/b&gt;&lt;/div&gt;" style="rounded=1;whiteSpace=wrap;html=1;fillColor=#FFFFCC;" vertex="1" parent="1">
                    <mxGeometry x="-540" y="570.0000000000002" width="120" height="60" as="geometry"/>
                </mxCell>
                <mxCell id="12" value="&lt;b&gt;Temp écha Gauche&amp;nbsp;&lt;/b&gt;&lt;div&gt;&lt;b&gt;Min : 259.5&lt;/b&gt;&lt;/div&gt;&lt;div&gt;&lt;b&gt;M&lt;span style=&quot;background-color: transparent;&quot;&gt;ax : 607.5&lt;/span&gt;&lt;/b&gt;&lt;/div&gt;" style="rounded=1;whiteSpace=wrap;html=1;fillColor=#FFFFCC;" vertex="1" parent="1">
                    <mxGeometry x="-370" y="600.0000000000002" width="120" height="60" as="geometry"/>
                </mxCell>
                <mxCell id="13" value="&lt;b&gt;Tem liquide refroid&lt;/b&gt;&lt;div&gt;&lt;b&gt;Min : 78&lt;/b&gt;&lt;/div&gt;&lt;div&gt;&lt;b&gt;Max : 102&lt;/b&gt;&lt;/div&gt;" style="rounded=1;whiteSpace=wrap;html=1;fillColor=#FFFFCC;" vertex="1" parent="1">
                    <mxGeometry x="-240" y="680.0000000000002" width="120" height="60" as="geometry"/>
                </mxCell>
                <mxCell id="14" value="&lt;b&gt;Temp sortie Conver&lt;/b&gt;&lt;div&gt;&lt;b&gt;Min : 76.5&lt;/b&gt;&lt;/div&gt;&lt;div&gt;&lt;b&gt;Max : 128.5&lt;/b&gt;&lt;/div&gt;" style="rounded=1;whiteSpace=wrap;html=1;fillColor=#FFFFCC;" vertex="1" parent="1">
                    <mxGeometry x="-200" y="780.0000000000002" width="120" height="60" as="geometry"/>
                </mxCell>
                <mxCell id="16" value="" style="endArrow=classic;html=1;entryX=1;entryY=0.5;entryDx=0;entryDy=0;fillColor=#FFFFCC;" edge="1" parent="1" target="9">
                    <mxGeometry width="50" height="50" relative="1" as="geometry">
                        <mxPoint x="-510" y="780" as="sourcePoint"/>
                        <mxPoint x="-670" y="773" as="targetPoint"/>
                    </mxGeometry>
                </mxCell>
                <mxCell id="17" value="" style="endArrow=classic;html=1;entryX=0.5;entryY=0;entryDx=0;entryDy=0;fillColor=#FFFFCC;" edge="1" parent="1" target="4">
                    <mxGeometry width="50" height="50" relative="1" as="geometry">
                        <mxPoint x="-510" y="780" as="sourcePoint"/>
                        <mxPoint x="-660" y="783" as="targetPoint"/>
                    </mxGeometry>
                </mxCell>
                <mxCell id="18" value="" style="endArrow=classic;html=1;entryX=0.5;entryY=0;entryDx=0;entryDy=0;fillColor=#FFFFCC;" edge="1" parent="1" target="5">
                    <mxGeometry width="50" height="50" relative="1" as="geometry">
                        <mxPoint x="-510" y="780" as="sourcePoint"/>
                        <mxPoint x="-650" y="793" as="targetPoint"/>
                    </mxGeometry>
                </mxCell>
                <mxCell id="19" value="" style="endArrow=classic;html=1;entryX=0.5;entryY=1;entryDx=0;entryDy=0;fillColor=#FFFFCC;" edge="1" parent="1" target="10">
                    <mxGeometry width="50" height="50" relative="1" as="geometry">
                        <mxPoint x="-510" y="780" as="sourcePoint"/>
                        <mxPoint x="-640" y="803" as="targetPoint"/>
                    </mxGeometry>
                </mxCell>
                <mxCell id="20" value="" style="endArrow=classic;html=1;exitX=0.5;exitY=1;exitDx=0;exitDy=0;fillColor=#FFFFCC;" edge="1" parent="1" source="3" target="6">
                    <mxGeometry width="50" height="50" relative="1" as="geometry">
                        <mxPoint x="-470" y="813" as="sourcePoint"/>
                        <mxPoint x="-449" y="880" as="targetPoint"/>
                    </mxGeometry>
                </mxCell>
                <mxCell id="21" value="" style="endArrow=classic;html=1;entryX=0.5;entryY=0;entryDx=0;entryDy=0;fillColor=#FFFFCC;exitX=0.923;exitY=1;exitDx=0;exitDy=0;exitPerimeter=0;" edge="1" parent="1" source="3" target="7">
                    <mxGeometry width="50" height="50" relative="1" as="geometry">
                        <mxPoint x="-450" y="810" as="sourcePoint"/>
                        <mxPoint x="-620" y="823" as="targetPoint"/>
                    </mxGeometry>
                </mxCell>
                <mxCell id="22" value="" style="endArrow=classic;html=1;entryX=0.5;entryY=0;entryDx=0;entryDy=0;fillColor=#FFFFCC;exitX=1;exitY=0.75;exitDx=0;exitDy=0;" edge="1" parent="1" source="3" target="8">
                    <mxGeometry width="50" height="50" relative="1" as="geometry">
                        <mxPoint x="-370" y="830" as="sourcePoint"/>
                        <mxPoint x="-610" y="833" as="targetPoint"/>
                    </mxGeometry>
                </mxCell>
                <mxCell id="23" value="" style="endArrow=classic;html=1;exitX=0;exitY=0.5;exitDx=0;exitDy=0;entryX=0.25;entryY=1;entryDx=0;entryDy=0;fillColor=#FFFFCC;" edge="1" parent="1" source="3" target="11">
                    <mxGeometry width="50" height="50" relative="1" as="geometry">
                        <mxPoint x="-440" y="843" as="sourcePoint"/>
                        <mxPoint x="-600" y="843" as="targetPoint"/>
                    </mxGeometry>
                </mxCell>
                <mxCell id="24" value="" style="endArrow=classic;html=1;exitX=1;exitY=0.5;exitDx=0;exitDy=0;exitPerimeter=0;entryX=0;entryY=0.5;entryDx=0;entryDy=0;fillColor=#FFFFCC;" edge="1" parent="1" source="3" target="14">
                    <mxGeometry width="50" height="50" relative="1" as="geometry">
                        <mxPoint x="-430" y="853" as="sourcePoint"/>
                        <mxPoint x="-590" y="853" as="targetPoint"/>
                    </mxGeometry>
                </mxCell>
                <mxCell id="25" value="" style="endArrow=classic;html=1;entryX=0.333;entryY=1.017;entryDx=0;entryDy=0;entryPerimeter=0;exitX=1;exitY=0.5;exitDx=0;exitDy=0;fillColor=#FFFFCC;" edge="1" parent="1" source="3" target="13">
                    <mxGeometry width="50" height="50" relative="1" as="geometry">
                        <mxPoint x="-380" y="780" as="sourcePoint"/>
                        <mxPoint x="-580" y="863" as="targetPoint"/>
                    </mxGeometry>
                </mxCell>
                <mxCell id="26" value="" style="endArrow=classic;html=1;entryX=0.417;entryY=0.983;entryDx=0;entryDy=0;entryPerimeter=0;fillColor=#FFFFCC;exitX=1;exitY=0.5;exitDx=0;exitDy=0;" edge="1" parent="1" source="3" target="12">
                    <mxGeometry width="50" height="50" relative="1" as="geometry">
                        <mxPoint x="-390" y="780" as="sourcePoint"/>
                        <mxPoint x="-570" y="873" as="targetPoint"/>
                    </mxGeometry>
                </mxCell>
            </root>
        </mxGraphModel>
    </diagram>
</mxfile>